<?xml version="1.0" encoding="UTF-8" standalone="no"?>
<!DOCTYPE svg PUBLIC "-//W3C//DTD SVG 1.1//EN"
 "http://www.w3.org/Graphics/SVG/1.1/DTD/svg11.dtd">
<!-- Generated by graphviz version 9.0.0 (20231125.0833)
 -->
<!-- Pages: 1 -->
<svg width="992pt" height="404pt"
 viewBox="0.00 0.00 992.10 404.00" xmlns="http://www.w3.org/2000/svg" xmlns:xlink="http://www.w3.org/1999/xlink">
<g id="graph0" class="graph" transform="scale(1 1) rotate(0) translate(4 400)">
<polygon fill="white" stroke="none" points="-4,4 -4,-400 988.1,-400 988.1,4 -4,4"/>
<!-- 127832523259856 -->
<g id="node1" class="node">
<title>127832523259856</title>
<ellipse fill="none" stroke="black" cx="330.41" cy="-378" rx="72.78" ry="18"/>
<text text-anchor="middle" x="330.41" y="-373.32" font-family="Times,serif" font-size="14.00">FunctionDef</text>
</g>
<!-- 127832523154736 -->
<g id="node2" class="node">
<title>127832523154736</title>
<ellipse fill="none" stroke="black" cx="65.41" cy="-306" rx="65.41" ry="18"/>
<text text-anchor="middle" x="65.41" y="-301.32" font-family="Times,serif" font-size="14.00">arguments</text>
</g>
<!-- 127832523259856&#45;&gt;127832523154736 -->
<g id="edge1" class="edge">
<title>127832523259856&#45;&gt;127832523154736</title>
<path fill="none" stroke="black" d="M281.81,-364.16C236.85,-352.29 170,-334.63 122.52,-322.08"/>
<polygon fill="black" stroke="black" points="123.52,-318.73 112.96,-319.56 121.73,-325.5 123.52,-318.73"/>
</g>
<!-- 127832523154160 -->
<g id="node3" class="node">
<title>127832523154160</title>
<ellipse fill="none" stroke="black" cx="193.41" cy="-306" rx="44.37" ry="18"/>
<text text-anchor="middle" x="193.41" y="-301.32" font-family="Times,serif" font-size="14.00">Assign</text>
</g>
<!-- 127832523259856&#45;&gt;127832523154160 -->
<g id="edge2" class="edge">
<title>127832523259856&#45;&gt;127832523154160</title>
<path fill="none" stroke="black" d="M299.67,-361.29C279.19,-350.83 252.17,-337.02 230.51,-325.95"/>
<polygon fill="black" stroke="black" points="232.2,-322.89 221.7,-321.45 229.01,-329.12 232.2,-322.89"/>
</g>
<!-- 127832523146480 -->
<g id="node7" class="node">
<title>127832523146480</title>
<ellipse fill="none" stroke="black" cx="330.41" cy="-306" rx="44.37" ry="18"/>
<text text-anchor="middle" x="330.41" y="-301.32" font-family="Times,serif" font-size="14.00">Assign</text>
</g>
<!-- 127832523259856&#45;&gt;127832523146480 -->
<g id="edge6" class="edge">
<title>127832523259856&#45;&gt;127832523146480</title>
<path fill="none" stroke="black" d="M330.41,-359.7C330.41,-352.41 330.41,-343.73 330.41,-335.54"/>
<polygon fill="black" stroke="black" points="333.91,-335.62 330.41,-325.62 326.91,-335.62 333.91,-335.62"/>
</g>
<!-- 127832523154544 -->
<g id="node10" class="node">
<title>127832523154544</title>
<ellipse fill="none" stroke="black" cx="512.41" cy="-306" rx="28.06" ry="18"/>
<text text-anchor="middle" x="512.41" y="-301.32" font-family="Times,serif" font-size="14.00">For</text>
</g>
<!-- 127832523259856&#45;&gt;127832523154544 -->
<g id="edge10" class="edge">
<title>127832523259856&#45;&gt;127832523154544</title>
<path fill="none" stroke="black" d="M368.57,-362.33C401.01,-349.85 447.18,-332.09 478.39,-320.09"/>
<polygon fill="black" stroke="black" points="479.27,-323.5 487.34,-316.64 476.75,-316.97 479.27,-323.5"/>
</g>
<!-- 127832523153728 -->
<g id="node22" class="node">
<title>127832523153728</title>
<ellipse fill="none" stroke="black" cx="744.41" cy="-306" rx="35.42" ry="18"/>
<text text-anchor="middle" x="744.41" y="-301.32" font-family="Times,serif" font-size="14.00">Expr</text>
</g>
<!-- 127832523259856&#45;&gt;127832523153728 -->
<g id="edge27" class="edge">
<title>127832523259856&#45;&gt;127832523153728</title>
<path fill="none" stroke="black" d="M389.29,-367.05C473.16,-352.86 625.17,-327.16 700.15,-314.48"/>
<polygon fill="black" stroke="black" points="700.3,-318.01 709.58,-312.89 699.13,-311.11 700.3,-318.01"/>
</g>
<!-- 127832523157040 -->
<g id="node4" class="node">
<title>127832523157040</title>
<ellipse fill="none" stroke="black" cx="129.41" cy="-162" rx="40.69" ry="18"/>
<text text-anchor="middle" x="129.41" y="-157.32" font-family="Times,serif" font-size="14.00">Name</text>
</g>
<!-- 127832523154160&#45;&gt;127832523157040 -->
<g id="edge3" class="edge">
<title>127832523154160&#45;&gt;127832523157040</title>
<path fill="none" stroke="black" d="M161.8,-292.99C144.13,-284.45 123.66,-271.08 113.41,-252 103.15,-232.9 108.62,-208.5 115.83,-190.08"/>
<polygon fill="black" stroke="black" points="118.94,-191.71 119.7,-181.14 112.52,-188.93 118.94,-191.71"/>
</g>
<!-- 127832523147488 -->
<g id="node6" class="node">
<title>127832523147488</title>
<ellipse fill="none" stroke="black" cx="178.41" cy="-234" rx="56.47" ry="18"/>
<text text-anchor="middle" x="178.41" y="-229.32" font-family="Times,serif" font-size="14.00">Constant</text>
</g>
<!-- 127832523154160&#45;&gt;127832523147488 -->
<g id="edge5" class="edge">
<title>127832523154160&#45;&gt;127832523147488</title>
<path fill="none" stroke="black" d="M189.71,-287.7C188.12,-280.32 186.24,-271.52 184.47,-263.25"/>
<polygon fill="black" stroke="black" points="187.91,-262.63 182.4,-253.58 181.07,-264.1 187.91,-262.63"/>
</g>
<!-- 127832584359456 -->
<g id="node5" class="node">
<title>127832584359456</title>
<ellipse fill="none" stroke="black" cx="262.41" cy="-90" rx="38.58" ry="18"/>
<text text-anchor="middle" x="262.41" y="-85.33" font-family="Times,serif" font-size="14.00">Store</text>
</g>
<!-- 127832523157040&#45;&gt;127832584359456 -->
<g id="edge4" class="edge">
<title>127832523157040&#45;&gt;127832584359456</title>
<path fill="none" stroke="black" d="M154.74,-147.67C175.4,-136.8 204.78,-121.33 227.64,-109.3"/>
<polygon fill="black" stroke="black" points="229.07,-112.5 236.29,-104.75 225.81,-106.31 229.07,-112.5"/>
</g>
<!-- 127832523146144 -->
<g id="node8" class="node">
<title>127832523146144</title>
<ellipse fill="none" stroke="black" cx="262.41" cy="-162" rx="40.69" ry="18"/>
<text text-anchor="middle" x="262.41" y="-157.32" font-family="Times,serif" font-size="14.00">Name</text>
</g>
<!-- 127832523146480&#45;&gt;127832523146144 -->
<g id="edge7" class="edge">
<title>127832523146480&#45;&gt;127832523146144</title>
<path fill="none" stroke="black" d="M311.94,-289.63C301.43,-279.9 288.91,-266.46 281.41,-252 271.68,-233.22 266.93,-209.74 264.61,-191.61"/>
<polygon fill="black" stroke="black" points="268.11,-191.38 263.55,-181.81 261.15,-192.13 268.11,-191.38"/>
</g>
<!-- 127832523155216 -->
<g id="node9" class="node">
<title>127832523155216</title>
<ellipse fill="none" stroke="black" cx="346.41" cy="-234" rx="56.47" ry="18"/>
<text text-anchor="middle" x="346.41" y="-229.32" font-family="Times,serif" font-size="14.00">Constant</text>
</g>
<!-- 127832523146480&#45;&gt;127832523155216 -->
<g id="edge9" class="edge">
<title>127832523146480&#45;&gt;127832523155216</title>
<path fill="none" stroke="black" d="M334.37,-287.7C336.05,-280.32 338.06,-271.52 339.96,-263.25"/>
<polygon fill="black" stroke="black" points="343.35,-264.11 342.17,-253.58 336.53,-262.55 343.35,-264.11"/>
</g>
<!-- 127832523146144&#45;&gt;127832584359456 -->
<g id="edge8" class="edge">
<title>127832523146144&#45;&gt;127832584359456</title>
<path fill="none" stroke="black" d="M262.41,-143.7C262.41,-136.41 262.41,-127.73 262.41,-119.54"/>
<polygon fill="black" stroke="black" points="265.91,-119.62 262.41,-109.62 258.91,-119.62 265.91,-119.62"/>
</g>
<!-- 127832523156368 -->
<g id="node11" class="node">
<title>127832523156368</title>
<ellipse fill="none" stroke="black" cx="461.41" cy="-234" rx="40.69" ry="18"/>
<text text-anchor="middle" x="461.41" y="-229.32" font-family="Times,serif" font-size="14.00">Name</text>
</g>
<!-- 127832523154544&#45;&gt;127832523156368 -->
<g id="edge11" class="edge">
<title>127832523154544&#45;&gt;127832523156368</title>
<path fill="none" stroke="black" d="M500.84,-289.12C494.67,-280.64 486.93,-270.02 479.94,-260.43"/>
<polygon fill="black" stroke="black" points="482.9,-258.55 474.19,-252.53 477.24,-262.67 482.9,-258.55"/>
</g>
<!-- 127832523155744 -->
<g id="node12" class="node">
<title>127832523155744</title>
<ellipse fill="none" stroke="black" cx="646.41" cy="-162" rx="30.69" ry="18"/>
<text text-anchor="middle" x="646.41" y="-157.32" font-family="Times,serif" font-size="14.00">Call</text>
</g>
<!-- 127832523154544&#45;&gt;127832523155744 -->
<g id="edge13" class="edge">
<title>127832523154544&#45;&gt;127832523155744</title>
<path fill="none" stroke="black" d="M538.01,-298.27C561.77,-290.75 596.54,-276.33 617.41,-252 631.98,-235.02 639.27,-210.57 642.89,-191.59"/>
<polygon fill="black" stroke="black" points="646.33,-192.25 644.5,-181.82 639.42,-191.12 646.33,-192.25"/>
</g>
<!-- 127832523156896 -->
<g id="node16" class="node">
<title>127832523156896</title>
<ellipse fill="none" stroke="black" cx="564.41" cy="-234" rx="44.37" ry="18"/>
<text text-anchor="middle" x="564.41" y="-229.32" font-family="Times,serif" font-size="14.00">Assign</text>
</g>
<!-- 127832523154544&#45;&gt;127832523156896 -->
<g id="edge18" class="edge">
<title>127832523154544&#45;&gt;127832523156896</title>
<path fill="none" stroke="black" d="M523.95,-289.46C530.24,-281.01 538.17,-270.32 545.35,-260.66"/>
<polygon fill="black" stroke="black" points="548.12,-262.8 551.28,-252.68 542.5,-258.62 548.12,-262.8"/>
</g>
<!-- 127832523156368&#45;&gt;127832584359456 -->
<g id="edge12" class="edge">
<title>127832523156368&#45;&gt;127832584359456</title>
<path fill="none" stroke="black" d="M439.43,-218.65C423.47,-208.14 401.44,-193.43 382.41,-180 350.61,-157.56 314.85,-130.84 290.71,-112.57"/>
<polygon fill="black" stroke="black" points="293.03,-109.94 282.95,-106.69 288.8,-115.52 293.03,-109.94"/>
</g>
<!-- 127832523152432 -->
<g id="node13" class="node">
<title>127832523152432</title>
<ellipse fill="none" stroke="black" cx="646.41" cy="-90" rx="40.69" ry="18"/>
<text text-anchor="middle" x="646.41" y="-85.33" font-family="Times,serif" font-size="14.00">Name</text>
</g>
<!-- 127832523155744&#45;&gt;127832523152432 -->
<g id="edge14" class="edge">
<title>127832523155744&#45;&gt;127832523152432</title>
<path fill="none" stroke="black" d="M646.41,-143.7C646.41,-136.41 646.41,-127.73 646.41,-119.54"/>
<polygon fill="black" stroke="black" points="649.91,-119.62 646.41,-109.62 642.91,-119.62 649.91,-119.62"/>
</g>
<!-- 127832523151952 -->
<g id="node15" class="node">
<title>127832523151952</title>
<ellipse fill="none" stroke="black" cx="745.41" cy="-90" rx="40.69" ry="18"/>
<text text-anchor="middle" x="745.41" y="-85.33" font-family="Times,serif" font-size="14.00">Name</text>
</g>
<!-- 127832523155744&#45;&gt;127832523151952 -->
<g id="edge16" class="edge">
<title>127832523155744&#45;&gt;127832523151952</title>
<path fill="none" stroke="black" d="M665.5,-147.5C679.69,-137.47 699.31,-123.6 715.56,-112.11"/>
<polygon fill="black" stroke="black" points="717.29,-115.17 723.44,-106.54 713.25,-109.45 717.29,-115.17"/>
</g>
<!-- 127832584359360 -->
<g id="node14" class="node">
<title>127832584359360</title>
<ellipse fill="none" stroke="black" cx="695.41" cy="-18" rx="35.42" ry="18"/>
<text text-anchor="middle" x="695.41" y="-13.32" font-family="Times,serif" font-size="14.00">Load</text>
</g>
<!-- 127832523152432&#45;&gt;127832584359360 -->
<g id="edge15" class="edge">
<title>127832523152432&#45;&gt;127832584359360</title>
<path fill="none" stroke="black" d="M658.03,-72.41C663.82,-64.13 670.97,-53.92 677.45,-44.66"/>
<polygon fill="black" stroke="black" points="680.15,-46.91 683.02,-36.71 674.41,-42.9 680.15,-46.91"/>
</g>
<!-- 127832523151952&#45;&gt;127832584359360 -->
<g id="edge17" class="edge">
<title>127832523151952&#45;&gt;127832584359360</title>
<path fill="none" stroke="black" d="M733.56,-72.41C727.65,-64.13 720.36,-53.92 713.74,-44.66"/>
<polygon fill="black" stroke="black" points="716.72,-42.8 708.06,-36.7 711.02,-46.87 716.72,-42.8"/>
</g>
<!-- 127832523147152 -->
<g id="node17" class="node">
<title>127832523147152</title>
<ellipse fill="none" stroke="black" cx="432.41" cy="-162" rx="40.69" ry="18"/>
<text text-anchor="middle" x="432.41" y="-157.32" font-family="Times,serif" font-size="14.00">Name</text>
</g>
<!-- 127832523156896&#45;&gt;127832523147152 -->
<g id="edge19" class="edge">
<title>127832523156896&#45;&gt;127832523147152</title>
<path fill="none" stroke="black" d="M538.33,-219.17C518.1,-208.44 489.84,-193.45 467.6,-181.66"/>
<polygon fill="black" stroke="black" points="469.35,-178.63 458.88,-177.04 466.07,-184.81 469.35,-178.63"/>
</g>
<!-- 127832523157952 -->
<g id="node18" class="node">
<title>127832523157952</title>
<ellipse fill="none" stroke="black" cx="546.41" cy="-162" rx="42.26" ry="18"/>
<text text-anchor="middle" x="546.41" y="-157.32" font-family="Times,serif" font-size="14.00">BinOp</text>
</g>
<!-- 127832523156896&#45;&gt;127832523157952 -->
<g id="edge21" class="edge">
<title>127832523156896&#45;&gt;127832523157952</title>
<path fill="none" stroke="black" d="M559.96,-215.7C558.07,-208.32 555.8,-199.52 553.68,-191.25"/>
<polygon fill="black" stroke="black" points="557.07,-190.38 551.19,-181.57 550.29,-192.13 557.07,-190.38"/>
</g>
<!-- 127832523147152&#45;&gt;127832584359456 -->
<g id="edge20" class="edge">
<title>127832523147152&#45;&gt;127832584359456</title>
<path fill="none" stroke="black" d="M403.19,-148.97C375,-137.36 332.14,-119.71 301.13,-106.94"/>
<polygon fill="black" stroke="black" points="302.67,-103.79 292.09,-103.22 300,-110.26 302.67,-103.79"/>
</g>
<!-- 127832523154880 -->
<g id="node19" class="node">
<title>127832523154880</title>
<ellipse fill="none" stroke="black" cx="359.41" cy="-90" rx="40.69" ry="18"/>
<text text-anchor="middle" x="359.41" y="-85.33" font-family="Times,serif" font-size="14.00">Name</text>
</g>
<!-- 127832523157952&#45;&gt;127832523154880 -->
<g id="edge22" class="edge">
<title>127832523157952&#45;&gt;127832523154880</title>
<path fill="none" stroke="black" d="M515.53,-149.44C484.08,-137.67 435.13,-119.34 400.44,-106.36"/>
<polygon fill="black" stroke="black" points="401.73,-103.1 391.14,-102.87 399.27,-109.66 401.73,-103.1"/>
</g>
<!-- 127832584360128 -->
<g id="node20" class="node">
<title>127832584360128</title>
<ellipse fill="none" stroke="black" cx="552.41" cy="-90" rx="34.9" ry="18"/>
<text text-anchor="middle" x="552.41" y="-85.33" font-family="Times,serif" font-size="14.00">Mult</text>
</g>
<!-- 127832523157952&#45;&gt;127832584360128 -->
<g id="edge24" class="edge">
<title>127832523157952&#45;&gt;127832584360128</title>
<path fill="none" stroke="black" d="M547.9,-143.7C548.52,-136.41 549.27,-127.73 549.97,-119.54"/>
<polygon fill="black" stroke="black" points="553.45,-119.87 550.82,-109.61 546.48,-119.28 553.45,-119.87"/>
</g>
<!-- 127832523146096 -->
<g id="node21" class="node">
<title>127832523146096</title>
<ellipse fill="none" stroke="black" cx="458.41" cy="-90" rx="40.69" ry="18"/>
<text text-anchor="middle" x="458.41" y="-85.33" font-family="Times,serif" font-size="14.00">Name</text>
</g>
<!-- 127832523157952&#45;&gt;127832523146096 -->
<g id="edge25" class="edge">
<title>127832523157952&#45;&gt;127832523146096</title>
<path fill="none" stroke="black" d="M527.32,-145.81C515.33,-136.27 499.65,-123.8 486.28,-113.17"/>
<polygon fill="black" stroke="black" points="488.66,-110.59 478.65,-107.1 484.3,-116.07 488.66,-110.59"/>
</g>
<!-- 127832523154880&#45;&gt;127832584359360 -->
<g id="edge23" class="edge">
<title>127832523154880&#45;&gt;127832584359360</title>
<path fill="none" stroke="black" d="M389.77,-77.67C395.89,-75.61 402.32,-73.61 408.41,-72 492.74,-49.72 593.43,-33.44 650.35,-25.16"/>
<polygon fill="black" stroke="black" points="650.57,-28.67 659.97,-23.78 649.57,-21.74 650.57,-28.67"/>
</g>
<!-- 127832523146096&#45;&gt;127832584359360 -->
<g id="edge26" class="edge">
<title>127832523146096&#45;&gt;127832584359360</title>
<path fill="none" stroke="black" d="M489.81,-78.05C495.96,-75.98 502.37,-73.88 508.41,-72 558.12,-56.52 615.82,-40.45 653.84,-30.12"/>
<polygon fill="black" stroke="black" points="654.3,-33.62 663.03,-27.63 652.47,-26.87 654.3,-33.62"/>
</g>
<!-- 127832523151520 -->
<g id="node23" class="node">
<title>127832523151520</title>
<ellipse fill="none" stroke="black" cx="844.41" cy="-162" rx="30.69" ry="18"/>
<text text-anchor="middle" x="844.41" y="-157.32" font-family="Times,serif" font-size="14.00">Call</text>
</g>
<!-- 127832523153728&#45;&gt;127832523151520 -->
<g id="edge28" class="edge">
<title>127832523153728&#45;&gt;127832523151520</title>
<path fill="none" stroke="black" d="M755.88,-288.71C773.21,-264.1 806.21,-217.24 826.66,-188.21"/>
<polygon fill="black" stroke="black" points="829.31,-190.53 832.2,-180.34 823.58,-186.5 829.31,-190.53"/>
</g>
<!-- 127832523156416 -->
<g id="node24" class="node">
<title>127832523156416</title>
<ellipse fill="none" stroke="black" cx="844.41" cy="-90" rx="40.69" ry="18"/>
<text text-anchor="middle" x="844.41" y="-85.33" font-family="Times,serif" font-size="14.00">Name</text>
</g>
<!-- 127832523151520&#45;&gt;127832523156416 -->
<g id="edge29" class="edge">
<title>127832523151520&#45;&gt;127832523156416</title>
<path fill="none" stroke="black" d="M844.41,-143.7C844.41,-136.41 844.41,-127.73 844.41,-119.54"/>
<polygon fill="black" stroke="black" points="847.91,-119.62 844.41,-109.62 840.91,-119.62 847.91,-119.62"/>
</g>
<!-- 127832523156992 -->
<g id="node25" class="node">
<title>127832523156992</title>
<ellipse fill="none" stroke="black" cx="943.41" cy="-90" rx="40.69" ry="18"/>
<text text-anchor="middle" x="943.41" y="-85.33" font-family="Times,serif" font-size="14.00">Name</text>
</g>
<!-- 127832523151520&#45;&gt;127832523156992 -->
<g id="edge31" class="edge">
<title>127832523151520&#45;&gt;127832523156992</title>
<path fill="none" stroke="black" d="M863.5,-147.5C877.69,-137.47 897.31,-123.6 913.56,-112.11"/>
<polygon fill="black" stroke="black" points="915.29,-115.17 921.44,-106.54 911.25,-109.45 915.29,-115.17"/>
</g>
<!-- 127832523156416&#45;&gt;127832584359360 -->
<g id="edge30" class="edge">
<title>127832523156416&#45;&gt;127832584359360</title>
<path fill="none" stroke="black" d="M817.08,-76.16C792.86,-64.78 757.35,-48.1 730.93,-35.69"/>
<polygon fill="black" stroke="black" points="732.49,-32.55 721.95,-31.47 729.52,-38.89 732.49,-32.55"/>
</g>
<!-- 127832523156992&#45;&gt;127832584359360 -->
<g id="edge32" class="edge">
<title>127832523156992&#45;&gt;127832584359360</title>
<path fill="none" stroke="black" d="M912.42,-77.86C906.47,-75.83 900.27,-73.79 894.41,-72 840.94,-55.63 778.51,-39.47 738.04,-29.39"/>
<polygon fill="black" stroke="black" points="739,-26.02 728.45,-27.01 737.31,-32.81 739,-26.02"/>
</g>
</g>
</svg>
